<?xml version="1.0" encoding="UTF-8"?>
<svg width="122px" height="44px" viewBox="0 0 122 44" version="1.1" xmlns="http://www.w3.org/2000/svg" xmlns:xlink="http://www.w3.org/1999/xlink">
    <title>DB389346-5FC0-42D7-A4ED-C5F6DF9DD0C2</title>
    <defs>
        <polygon id="path-1" points="0.0500736 0.1773312 16.17504 0.1773312 16.17504 25.0954752 0.0500736 25.0954752"></polygon>
        <polygon id="path-3" points="0.177694827 0.02784 11.4766991 0.02784 11.4766991 16.7216448 0.177694827 16.7216448"></polygon>
    </defs>
    <g id="Page-3" stroke="none" stroke-width="1" fill="none" fill-rule="evenodd">
        <g id="7.1-Xceed-Landing" transform="translate(-135.000000, -11.000000)">
            <g id=":-Logo-:" transform="translate(135.000000, 11.000000)">
                <path d="M10.88544,37.7672448 C9.091968,37.7672448 7.524096,37.5360768 6.1872,37.0675968 C4.844928,36.5996928 3.728064,35.9455488 2.825664,35.1107328 C1.917504,34.2701568 1.235136,33.2719488 0.76704,32.1099648 C0.298944,30.9481728 0.03936,29.6734848 -1.49213975e-14,28.2859008 L4.540224,28.2859008 C4.619328,29.1775488 4.8336,29.9497728 5.19456,30.6041088 C5.549952,31.2586368 6.00672,31.8056448 6.559488,32.2343808 C7.106496,32.6629248 7.738176,32.9785728 8.44896,33.1817088 C9.159744,33.3846528 9.915264,33.4862208 10.722048,33.4862208 C11.483328,33.4862208 12.177024,33.4130688 12.803136,33.2550528 C13.429248,33.1029888 13.970496,32.8887168 14.416128,32.6064768 C14.861568,32.3244288 15.205824,31.9803648 15.44832,31.5742848 C15.691008,31.1626368 15.809472,30.7058688 15.809472,30.1980288 C15.809472,29.6850048 15.691008,29.2447488 15.45408,28.8782208 C15.217152,28.5170688 14.833536,28.1900928 14.308992,27.9026688 C13.77888,27.6150528 13.085184,27.3554688 12.227904,27.1185408 C11.364864,26.8818048 10.310208,26.6389248 9.052608,26.3854848 C7.619904,26.0638848 6.384768,25.6915968 5.352576,25.2686208 C4.314816,24.8456448 3.463104,24.3435648 2.79744,23.7627648 C2.131968,23.1873408 1.641216,22.5216768 1.319808,21.7659648 C0.998208,21.0102528 0.840384,20.1418368 0.840384,19.1603328 C0.840384,18.1058688 1.060224,17.1355008 1.500288,16.2444288 C1.94016,15.3589248 2.566272,14.5916928 3.378432,13.9488768 C4.185024,13.3060608 5.1552,12.8039808 6.27744,12.4372608 C7.399872,12.0763008 8.651904,11.8902528 10.02816,11.8902528 C11.460864,11.8902528 12.769152,12.0874368 13.9536,12.4766208 C15.138048,12.8715648 16.159104,13.4299008 17.016384,14.1631488 C17.879232,14.8963968 18.550272,15.7932288 19.041216,16.8592128 C19.531968,17.9194368 19.791168,19.1265408 19.825152,20.4688128 L15.330048,20.4688128 C15.00288,17.6151168 13.276992,16.1877888 10.157952,16.1877888 C8.640768,16.1877888 7.478784,16.4473728 6.672192,16.9550208 C5.87136,17.4680448 5.465472,18.1732608 5.465472,19.0645248 C5.465472,19.4254848 5.55552,19.7411328 5.730432,20.0118528 C5.905152,20.2827648 6.1872,20.5310208 6.576384,20.7564288 C6.96,20.9822208 7.45632,21.1909248 8.059776,21.3767808 C8.668992,21.5628288 9.402048,21.7433088 10.259328,21.9239808 C11.009472,22.0762368 11.776704,22.2455808 12.566208,22.4371968 C13.350144,22.6234368 14.122944,22.8490368 14.878848,23.1139968 C15.634368,23.3791488 16.345152,23.7005568 17.010624,24.0786048 C17.676288,24.4562688 18.262848,24.9189888 18.770304,25.4602368 C19.277952,25.9963008 19.672896,26.6337408 19.96608,27.3667968 C20.259456,28.0998528 20.406144,28.9573248 20.406144,29.9388288 C20.406144,31.0950528 20.169216,32.1495168 19.69536,33.1081728 C19.221696,34.0672128 18.5616,34.8907008 17.721408,35.5788288 C16.875264,36.2669568 15.871296,36.8026368 14.703936,37.1918208 C13.536384,37.5754368 12.261504,37.7672448 10.88544,37.7672448" id="Fill-40" fill="#03030C"></path>
                <path d="M35.5390656,36.430368 C34.0614336,37.321632 32.3580096,37.767264 30.4178496,37.767264 C29.5041216,37.767264 28.6524096,37.637472 27.8742336,37.372128 C27.0901056,37.10736 26.4133056,36.729504 25.8380736,36.238944 C25.2684096,35.748 24.8172096,35.16144 24.4844736,34.47888 C24.1515456,33.79632 23.9881536,33.040608 23.9881536,32.217504 C23.9881536,27.834912 27.6033216,25.640736 34.8284736,25.640736 L35.5390656,25.640736 C35.5277376,25.1448 35.4883776,24.710304 35.4263616,24.332448 C35.3587776,23.959968 35.2120896,23.64432 34.9862976,23.384736 C34.7608896,23.125344 34.4337216,22.927968 34.0049856,22.798368 C33.5708736,22.668576 32.9954496,22.600992 32.2677696,22.600992 C30.1189056,22.600992 29.0022336,23.55408 28.9119936,25.460256 L24.3998016,25.460256 C24.6538176,21.021792 27.3383616,18.799392 32.4482496,18.799392 C33.6159936,18.799392 34.6648896,18.906528 35.5955136,19.115232 C36.5261376,19.323936 37.3158336,19.690464 37.9699776,20.220576 C38.6187456,20.75088 39.1206336,21.4728 39.4702656,22.386336 C39.8258496,23.300256 40.0003776,24.456288 40.0003776,25.8552 L40.0003776,37.372128 L35.5390656,37.372128 L35.5390656,36.430368 Z M35.5390656,29.289888 L34.2361536,29.289888 C30.4349376,29.289888 28.5341376,30.214944 28.5341376,32.070816 C28.5341376,32.685408 28.7822016,33.153504 29.2840896,33.480864 C29.7861696,33.808032 30.4516416,33.965856 31.2751296,33.965856 C31.6925376,33.965856 32.1099456,33.926112 32.5160256,33.841632 C32.9221056,33.76272 33.3170496,33.638496 33.6891456,33.480864 C34.0614336,33.322656 34.4054976,33.119904 34.7213376,32.877216 C35.0371776,32.634336 35.3078976,32.352864 35.5390656,32.036832 L35.5390656,29.289888 Z" id="Fill-42" fill="#03030C"></path>
                <path d="M50.0346816,22.9954368 L50.0346816,37.3722048 L45.5562816,37.3722048 L45.5562816,22.9954368 L43.0915776,22.9954368 L43.0915776,19.2280128 L45.5562816,19.2280128 L45.5562816,18.4554048 C45.5562816,14.4226368 47.3612736,12.4033728 50.9708736,12.4033728 C51.5011776,12.4033728 52.0143936,12.4431168 52.5107136,12.5216448 C53.0068416,12.5953728 53.4806976,12.6967488 53.9318976,12.8152128 L53.9318976,16.8028608 C53.3173056,16.6899648 52.8150336,16.6164288 52.4260416,16.5770688 C52.0424256,16.5377088 51.7041216,16.5208128 51.4220736,16.5208128 C50.9257536,16.5208128 50.5703616,16.6673088 50.3558976,16.9551168 C50.1418176,17.2484928 50.0346816,17.7557568 50.0346816,18.4834368 L50.0346816,19.2280128 L53.1704256,19.2280128 L53.1704256,22.9954368 L50.0346816,22.9954368 Z" id="Fill-44" fill="#03030C"></path>
                <path d="M67.0004352,25.9397568 C66.7128192,24.8117568 66.2445312,23.9769408 65.5846272,23.4243648 C64.9304832,22.8773568 64.1407872,22.6008768 63.2159232,22.6008768 C62.3246592,22.6008768 61.5407232,22.8773568 60.8694912,23.4243648 C60.1984512,23.9769408 59.7190272,24.8117568 59.4314112,25.9397568 L67.0004352,25.9397568 Z M63.5486592,37.7673408 C62.2232832,37.7673408 61.0163712,37.5588288 59.9221632,37.1356608 C58.8221952,36.7067328 57.8802432,36.0919488 57.0963072,35.2797888 C56.3066112,34.4731968 55.6975872,33.4807488 55.2688512,32.3020608 C54.8403072,31.1231808 54.6260352,29.7807168 54.6260352,28.2859968 C54.6260352,26.8195008 54.8347392,25.4998848 55.2521472,24.3267648 C55.6693632,23.1534528 56.2561152,22.1608128 57.0118272,21.3432768 C57.7675392,20.5311168 58.6699392,19.8990528 59.7190272,19.4593728 C60.7736832,19.0195008 61.9410432,18.7994688 63.2159232,18.7994688 C64.5357312,18.7994688 65.7257472,19.0135488 66.7861632,19.4422848 C67.8410112,19.8712128 68.7487872,20.4913728 69.4933632,21.3037248 C70.2436992,22.1101248 70.8189312,23.1083328 71.2192512,24.2874048 C71.6253312,25.4660928 71.8227072,26.7970368 71.8227072,28.2859968 L71.8227072,29.7244608 L59.3354112,29.7244608 C59.4425472,30.4352448 59.6232192,31.0609728 59.8770432,31.5910848 C60.1308672,32.1158208 60.4409472,32.5556928 60.8020992,32.9108928 C61.1684352,33.2607168 61.5860352,33.5260608 62.0541312,33.7061568 C62.5222272,33.8810688 63.0187392,33.9659328 63.5486592,33.9659328 C63.9434112,33.9659328 64.3383552,33.9037248 64.7388672,33.7681728 C65.1336192,33.6385728 65.4890112,33.4413888 65.8106112,33.1818048 C66.1320192,32.9224128 66.3912192,32.6065728 66.5945472,32.2342848 C66.7974912,31.8560448 66.9046272,31.4219328 66.9159552,30.9258048 L71.6422272,30.9258048 C71.4786432,32.0313408 71.1572352,33.0070848 70.6835712,33.8530368 C70.2099072,34.6989888 69.6173952,35.4151488 68.9069952,35.9905728 C68.1962112,36.5713728 67.3840512,37.0112448 66.4703232,37.3161408 C65.5565952,37.6150848 64.5806592,37.7673408 63.5486592,37.7673408 L63.5486592,37.7673408 Z" id="Fill-46" fill="#03030C"></path>
                <path d="M80.1025536,37.2763776 C80.1025536,38.6299776 79.9896576,39.7357056 79.7582976,40.5927936 C79.5271296,41.4443136 79.1943936,42.1097856 78.7602816,42.5894016 C78.3202176,43.0688256 77.7956736,43.3959936 77.1808896,43.5651456 C76.5605376,43.7344896 75.8666496,43.8187776 75.0998016,43.8187776 C74.6259456,43.8187776 74.1576576,43.7963136 73.6953216,43.7567616 C73.2329856,43.7120256 72.7702656,43.6609536 72.3021696,43.6046976 L72.3021696,39.3916416 C72.9676416,39.6110976 73.4750976,39.7524096 73.8251136,39.8146176 C74.1805056,39.8762496 74.4679296,39.9044736 74.6990976,39.9044736 C74.8909056,39.9044736 75.0431616,39.8653056 75.1620096,39.7917696 C75.2858496,39.7128576 75.3818496,39.5663616 75.4550016,39.3576576 C75.5227776,39.1487616 75.5734656,38.8724736 75.6016896,38.5230336 C75.6299136,38.1789696 75.6412416,37.7279616 75.6412416,37.1805696 L75.6412416,18.1170816 C77.3006976,17.7398016 78.7888896,17.2528896 80.1025536,16.6250496 L80.1025536,37.2763776 Z" id="Fill-48" fill="#03030C"></path>
                <path d="M92.1837504,33.9658752 C92.7814464,33.9658752 93.3230784,33.8474112 93.8136384,33.6102912 C94.3043904,33.3791232 94.7217984,33.0241152 95.0771904,32.5502592 C95.4270144,32.0762112 95.7033024,31.4842752 95.8951104,30.7734912 C96.0867264,30.0627072 96.1825344,29.2336512 96.1825344,28.2859392 C96.1825344,27.3497472 96.0867264,26.5262592 95.8951104,25.8158592 C95.7033024,25.1052672 95.4270144,24.5073792 95.0771904,24.0277632 C94.7217984,23.5485312 94.3043904,23.1931392 93.8136384,22.9560192 C93.3230784,22.7192832 92.7814464,22.6010112 92.1837504,22.6010112 C91.5916224,22.6010112 91.0444224,22.7192832 90.5538624,22.9560192 C90.0686784,23.1931392 89.6455104,23.5485312 89.2903104,24.0277632 C88.9404864,24.5073792 88.6697664,25.1052672 88.4723904,25.8158592 C88.2807744,26.5262592 88.1849664,27.3497472 88.1849664,28.2859392 C88.1849664,29.2336512 88.2807744,30.0627072 88.4723904,30.7734912 C88.6697664,31.4842752 88.9404864,32.0762112 89.2903104,32.5502592 C89.6455104,33.0241152 90.0686784,33.3791232 90.5538624,33.6102912 C91.0444224,33.8474112 91.5916224,33.9658752 92.1837504,33.9658752 M92.1837504,18.7994112 C93.5035584,18.7994112 94.6935744,19.0138752 95.7541824,19.4422272 C96.8086464,19.8711552 97.7166144,20.4913152 98.4611904,21.3038592 C99.2113344,22.1100672 99.7867584,23.1082752 100.187078,24.2873472 C100.593158,25.4660352 100.790534,26.7969792 100.790534,28.2859392 C100.790534,29.7806592 100.58759,31.1231232 100.17575,32.3020032 C99.7583424,33.4808832 99.1775424,34.4733312 98.4273984,35.2801152 C97.6828224,36.0918912 96.7748544,36.7066752 95.7201984,37.1356032 C94.6597824,37.5587712 93.4866624,37.7674752 92.1837504,37.7674752 C90.9090624,37.7674752 89.7359424,37.5587712 88.6812864,37.1409792 C87.6208704,36.7237632 86.7184704,36.1091712 85.9627584,35.3081472 C85.2068544,34.5013632 84.6260544,33.5089152 84.2142144,32.3300352 C83.7968064,31.1511552 83.5940544,29.8033152 83.5940544,28.2859392 C83.5940544,26.7969792 83.7968064,25.4660352 84.2030784,24.2873472 C84.6091584,23.1082752 85.1899584,22.1100672 85.9458624,21.3038592 C86.7015744,20.4913152 87.6097344,19.8711552 88.6641984,19.4422272 C89.7246144,19.0138752 90.8979264,18.7994112 92.1837504,18.7994112" id="Fill-50" fill="#03030C"></path>
                <g id="Group-54" transform="translate(104.255962, 12.672000)">
                    <mask id="mask-2" fill="white">
                        <use xlink:href="#path-1"></use>
                    </mask>
                    <g id="Clip-53"></g>
                    <path d="M4.5282816,19.7258112 C5.6282496,20.7748992 6.8462976,21.2938752 8.1774336,21.2938752 C9.2267136,21.2938752 10.0555776,20.8088832 10.6647936,19.8331392 C11.2793856,18.8573952 11.5840896,17.4076032 11.5840896,15.4791552 C11.5840896,13.6401792 11.2962816,12.2527872 10.7156736,11.3219712 C10.1400576,10.3911552 9.3336576,9.9290112 8.2957056,9.9290112 C6.9816576,9.9290112 5.7296256,10.7187072 4.5282816,12.3090432 L4.5282816,19.7258112 Z M4.5282816,7.4643072 C5.1204096,7.0242432 5.7520896,6.6915072 6.4177536,6.4659072 C7.0887936,6.2403072 7.7940096,6.1274112 8.5441536,6.1274112 C9.7679616,6.1274112 10.8510336,6.3532032 11.7983616,6.7984512 C12.7460736,7.2442752 13.5469056,7.8759552 14.1954816,8.6994432 C14.8440576,9.5173632 15.3346176,10.5040512 15.6731136,11.6548992 C16.0116096,12.8053632 16.1751936,14.0798592 16.1751936,15.4791552 C16.1751936,16.9339392 15.9776256,18.2537472 15.5828736,19.4380032 C15.1881216,20.6226432 14.6353536,21.6323712 13.9358976,22.4668032 C13.2364416,23.3071872 12.4131456,23.9561472 11.4600576,24.4129152 C10.5067776,24.8696832 9.4747776,25.0954752 8.3634816,25.0954752 C7.6020096,25.0954752 6.9140736,25.0275072 6.3048576,24.8808192 C5.6900736,24.7396992 5.0979456,24.4973952 4.5282816,24.1533312 L4.5282816,24.7003392 L0.0500736,24.7003392 L0.0500736,0.1773312 L4.5282816,0.1773312 L4.5282816,7.4643072 Z" id="Fill-52" fill="#03030C" mask="url(#mask-2)"></path>
                </g>
                <g id="Group-57" transform="translate(74.687962, 0.000000)">
                    <mask id="mask-4" fill="white">
                        <use xlink:href="#path-3"></use>
                    </mask>
                    <g id="Clip-56"></g>
                    <path d="M11.3095872,0.0278208 C7.9013952,4.1884608 -2.2408128,2.2680768 0.7088832,16.0137408 C4.3803072,6.6477888 7.1815872,7.3712448 10.1512512,2.3851968 C9.0023232,5.9759808 3.5045952,8.6695488 1.1535552,16.7216448 C8.7277632,15.0009408 12.3196992,10.7266368 11.3095872,0.0278208" id="Fill-55" fill="#03030C" mask="url(#mask-4)"></path>
                </g>
            </g>
        </g>
    </g>
</svg>